<svg width="90" height="90" viewBox="0 0 120 120" fill="none" xmlns="http://www.w3.org/2000/svg">
<path d="M107.143 0H12.8571C5.75893 0 0 5.75893 0 12.8571V107.143C0 114.241 5.75893 120 12.8571 120H107.143C114.241 120 120 114.241 120 107.143V12.8571C120 5.75893 114.241 0 107.143 0ZM74.2768 102.777C72.0268 103.179 71.1964 101.786 71.1964 100.634C71.1964 99.1875 71.25 91.7946 71.25 85.8214C71.25 81.6429 69.8571 78.9911 68.2232 77.5982C78.1339 76.5 88.5804 75.1339 88.5804 58.0179C88.5804 53.1429 86.8393 50.7054 84 47.5714C84.4554 46.4196 85.9821 41.6786 83.5446 35.5179C79.8214 34.3661 71.3036 40.3125 71.3036 40.3125C67.7679 39.3214 63.9375 38.8125 60.1607 38.8125C56.3839 38.8125 52.5536 39.3214 49.0179 40.3125C49.0179 40.3125 40.5 34.3661 36.7768 35.5179C34.3393 41.6518 35.8393 46.3929 36.3214 47.5714C33.4821 50.7054 32.1429 53.1429 32.1429 58.0179C32.1429 75.0536 42.1339 76.5 52.0446 77.5982C50.7589 78.75 49.6071 80.7321 49.2054 83.5714C46.6607 84.7232 40.1518 86.7054 36.2679 79.8482C33.8304 75.6161 29.4375 75.2679 29.4375 75.2679C25.0982 75.2143 29.1429 78 29.1429 78C32.0357 79.3393 34.0714 84.4821 34.0714 84.4821C36.6696 92.4375 49.0982 89.7589 49.0982 89.7589C49.0982 93.4821 49.1518 99.5357 49.1518 100.634C49.1518 101.786 48.3482 103.179 46.0714 102.777C28.3929 96.8571 16.0179 80.0357 16.0179 60.375C16.0179 35.7857 34.8214 17.1161 59.4107 17.1161C84 17.1161 103.929 35.7857 103.929 60.375C103.955 80.0357 91.9554 96.8839 74.2768 102.777ZM48 86.4107C47.4911 86.5179 47.0089 86.3036 46.9554 85.9554C46.9018 85.5536 47.25 85.2054 47.7589 85.0982C48.2679 85.0447 48.75 85.2589 48.8036 85.6071C48.8839 85.9554 48.5357 86.3036 48 86.4107ZM45.4554 86.1697C45.4554 86.5179 45.0536 86.8125 44.5179 86.8125C43.9286 86.8661 43.5268 86.5714 43.5268 86.1697C43.5268 85.8214 43.9286 85.5268 44.4643 85.5268C44.9732 85.4732 45.4554 85.7679 45.4554 86.1697ZM41.7857 85.875C41.6786 86.2232 41.1429 86.3839 40.6875 86.2232C40.1786 86.1161 39.8304 85.7143 39.9375 85.3661C40.0446 85.0179 40.5804 84.8572 41.0357 84.9643C41.5714 85.125 41.9196 85.5268 41.7857 85.875ZM38.4911 84.4286C38.25 84.7232 37.7411 84.6696 37.3393 84.2679C36.9375 83.9196 36.8304 83.4107 37.0982 83.1696C37.3393 82.875 37.8482 82.9286 38.25 83.3304C38.5982 83.6786 38.7321 84.2143 38.4911 84.4286ZM36.0536 81.9911C35.8125 82.1518 35.3571 81.9911 35.0625 81.5893C34.7679 81.1875 34.7679 80.7322 35.0625 80.5447C35.3571 80.3036 35.8125 80.4911 36.0536 80.8929C36.3482 81.2946 36.3482 81.7768 36.0536 81.9911ZM34.3125 79.3929C34.0714 79.6339 33.6696 79.5 33.375 79.2321C33.0804 78.8839 33.0268 78.4821 33.2679 78.2946C33.5089 78.0536 33.9107 78.1875 34.2054 78.4554C34.5 78.8036 34.5536 79.2054 34.3125 79.3929ZM32.5179 77.4107C32.4107 77.6518 32.0625 77.7054 31.7679 77.5179C31.4196 77.3571 31.2589 77.0625 31.3661 76.8214C31.4732 76.6607 31.7679 76.5804 32.1161 76.7143C32.4643 76.9018 32.625 77.1964 32.5179 77.4107Z" fill="#F8FAFF"/>
</svg>
